<svg xmlns="http://www.w3.org/2000/svg" xmlns:xlink="http://www.w3.org/1999/xlink" width="500" zoomAndPan="magnify" viewBox="0 0 375 374.999991" height="500" preserveAspectRatio="xMidYMid meet" version="1.0"><defs><clipPath id="61db943014"><path d="M 97.941406 97.941406 L 277.058594 97.941406 L 277.058594 277.058594 L 97.941406 277.058594 Z M 97.941406 97.941406 " clip-rule="nonzero"/></clipPath><clipPath id="7923b4bb8d"><path d="M 187.5 97.941406 C 138.039062 97.941406 97.941406 138.039062 97.941406 187.5 C 97.941406 236.960938 138.039062 277.058594 187.5 277.058594 C 236.960938 277.058594 277.058594 236.960938 277.058594 187.5 C 277.058594 138.039062 236.960938 97.941406 187.5 97.941406 " clip-rule="nonzero"/></clipPath><clipPath id="de3c1f654b"><path d="M 146.15625 136.765625 L 215.15625 136.765625 L 215.15625 224.515625 L 146.15625 224.515625 Z M 146.15625 136.765625 " clip-rule="nonzero"/></clipPath><clipPath id="5a70f118d6"><path d="M 185 143 L 215.15625 143 L 215.15625 216 L 185 216 Z M 185 143 " clip-rule="nonzero"/></clipPath><clipPath id="be55313123"><path d="M 220.878906 216.671875 L 228.84375 216.671875 L 228.84375 224.636719 L 220.878906 224.636719 Z M 220.878906 216.671875 " clip-rule="nonzero"/></clipPath><clipPath id="342d777eea"><path d="M 224.863281 216.671875 C 222.664062 216.671875 220.878906 218.457031 220.878906 220.65625 C 220.878906 222.855469 222.664062 224.636719 224.863281 224.636719 C 227.0625 224.636719 228.84375 222.855469 228.84375 220.65625 C 228.84375 218.457031 227.0625 216.671875 224.863281 216.671875 " clip-rule="nonzero"/></clipPath></defs><rect x="-37.5" width="450" fill="#ffffff" y="-37.499999" height="449.999989" fill-opacity="1"/><rect x="-37.5" width="450" fill="#ffffff" y="-37.499999" height="449.999989" fill-opacity="1"/><rect x="-37.5" width="450" fill="#ffffff" y="-37.499999" height="449.999989" fill-opacity="1"/><g clip-path="url(#61db943014)"><g clip-path="url(#7923b4bb8d)"><path fill="#ebebeb" d="M 97.941406 97.941406 L 277.058594 97.941406 L 277.058594 277.058594 L 97.941406 277.058594 Z M 97.941406 97.941406 " fill-opacity="1" fill-rule="nonzero"/></g></g><g clip-path="url(#de3c1f654b)"><path fill="#323232" d="M 213.242188 220.667969 C 213.75 220.667969 214.242188 220.871094 214.605469 221.230469 C 214.964844 221.589844 215.167969 222.078125 215.167969 222.582031 C 215.167969 223.09375 214.964844 223.582031 214.605469 223.9375 C 214.242188 224.300781 213.75 224.5 213.242188 224.5 L 147.386719 224.5 C 146.710938 224.5 146.160156 223.953125 146.160156 223.28125 L 146.160156 174.730469 C 146.160156 174.058594 146.53125 173.109375 146.988281 172.613281 L 179.242188 137.4375 C 179.585938 137.0625 180.066406 136.839844 180.574219 136.816406 C 181.085938 136.792969 181.585938 136.972656 181.964844 137.3125 C 182.339844 137.65625 182.566406 138.132812 182.589844 138.640625 C 182.613281 139.148438 182.433594 139.644531 182.089844 140.019531 L 150.839844 174.097656 C 150.386719 174.59375 150.015625 175.542969 150.015625 176.214844 L 150.015625 219.449219 C 150.015625 220.121094 150.566406 220.667969 151.242188 220.667969 Z M 213.242188 220.667969 " fill-opacity="1" fill-rule="nonzero"/></g><g clip-path="url(#5a70f118d6)"><path fill="#323232" d="M 185.601562 146.957031 C 185.261719 146.582031 185.078125 146.085938 185.101562 145.578125 C 185.125 145.070312 185.351562 144.59375 185.730469 144.25 C 186.105469 143.910156 186.605469 143.730469 187.117188 143.753906 C 187.625 143.777344 188.105469 144.003906 188.453125 144.375 L 214.34375 172.613281 C 214.796875 173.109375 215.167969 174.058594 215.167969 174.730469 L 215.167969 213.238281 C 215.167969 213.746094 214.964844 214.234375 214.605469 214.59375 C 214.242188 214.953125 213.75 215.15625 213.242188 215.15625 C 212.730469 215.15625 212.238281 214.953125 211.878906 214.59375 C 211.519531 214.234375 211.316406 213.746094 211.316406 213.238281 L 211.316406 176.214844 C 211.316406 175.542969 210.945312 174.59375 210.488281 174.097656 Z M 185.601562 146.957031 " fill-opacity="1" fill-rule="nonzero"/></g><g clip-path="url(#be55313123)"><g clip-path="url(#342d777eea)"><path fill="#323232" d="M 220.878906 216.671875 L 228.84375 216.671875 L 228.84375 224.636719 L 220.878906 224.636719 Z M 220.878906 216.671875 " fill-opacity="1" fill-rule="nonzero"/></g></g></svg>