<svg xmlns="http://www.w3.org/2000/svg" xmlns:xlink="http://www.w3.org/1999/xlink" width="500" zoomAndPan="magnify" viewBox="0 0 375 374.999991" height="500" preserveAspectRatio="xMidYMid meet" version="1.0"><defs><g/><clipPath id="81e187b836"><path d="M 10.015625 110.027344 L 131.683594 110.027344 L 131.683594 264.757812 L 10.015625 264.757812 Z M 10.015625 110.027344 " clip-rule="nonzero"/></clipPath><clipPath id="410b822068"><path d="M 78 122 L 131.683594 122 L 131.683594 249 L 78 249 Z M 78 122 " clip-rule="nonzero"/></clipPath><clipPath id="8f4fa731d7"><path d="M 141.773438 250.929688 L 155.816406 250.929688 L 155.816406 264.972656 L 141.773438 264.972656 Z M 141.773438 250.929688 " clip-rule="nonzero"/></clipPath><clipPath id="75f35e2df6"><path d="M 148.796875 250.929688 C 144.917969 250.929688 141.773438 254.074219 141.773438 257.953125 C 141.773438 261.828125 144.917969 264.972656 148.796875 264.972656 C 152.671875 264.972656 155.816406 261.828125 155.816406 257.953125 C 155.816406 254.074219 152.671875 250.929688 148.796875 250.929688 " clip-rule="nonzero"/></clipPath></defs><g clip-path="url(#81e187b836)"><path fill="#ffffff" d="M 128.304688 257.972656 C 129.207031 257.972656 130.070312 258.332031 130.710938 258.964844 C 131.34375 259.597656 131.703125 260.457031 131.703125 261.351562 C 131.703125 262.25 131.34375 263.109375 130.710938 263.742188 C 130.070312 264.378906 129.207031 264.730469 128.304688 264.730469 L 12.1875 264.730469 C 10.992188 264.730469 10.023438 263.765625 10.023438 262.582031 L 10.023438 176.972656 C 10.023438 175.789062 10.675781 174.113281 11.480469 173.234375 L 68.351562 111.214844 C 68.960938 110.554688 69.808594 110.15625 70.707031 110.117188 C 71.609375 110.074219 72.488281 110.390625 73.152344 110.996094 C 73.820312 111.597656 74.214844 112.4375 74.257812 113.335938 C 74.296875 114.230469 73.980469 115.105469 73.375 115.769531 L 18.277344 175.851562 C 17.472656 176.730469 16.820312 178.40625 16.820312 179.589844 L 16.820312 255.824219 C 16.820312 257.011719 17.789062 257.972656 18.980469 257.972656 Z M 128.304688 257.972656 " fill-opacity="1" fill-rule="nonzero"/></g><g clip-path="url(#410b822068)"><path fill="#ffffff" d="M 79.570312 128 C 78.964844 127.339844 78.648438 126.464844 78.6875 125.566406 C 78.730469 124.675781 79.125 123.832031 79.792969 123.226562 C 80.457031 122.625 81.335938 122.308594 82.238281 122.347656 C 83.136719 122.390625 83.984375 122.789062 84.59375 123.449219 L 130.246094 173.234375 C 131.050781 174.113281 131.703125 175.789062 131.703125 176.972656 L 131.703125 244.875 C 131.703125 245.769531 131.34375 246.628906 130.710938 247.265625 C 130.070312 247.898438 129.207031 248.253906 128.304688 248.253906 C 127.40625 248.253906 126.539062 247.898438 125.902344 247.265625 C 125.265625 246.628906 124.910156 245.769531 124.910156 244.875 L 124.910156 179.589844 C 124.910156 178.40625 124.257812 176.730469 123.453125 175.851562 Z M 79.570312 128 " fill-opacity="1" fill-rule="nonzero"/></g><g clip-path="url(#8f4fa731d7)"><g clip-path="url(#75f35e2df6)"><path fill="#ffffff" d="M 141.773438 250.929688 L 155.816406 250.929688 L 155.816406 264.972656 L 141.773438 264.972656 Z M 141.773438 250.929688 " fill-opacity="1" fill-rule="nonzero"/></g></g><g fill="#ffffff" fill-opacity="1"><g transform="translate(183.639656, 252.164146)"><g><path d="M 39.875 0 L 33.140625 0 L 33.140625 -16.546875 L 11.984375 -16.546875 L 11.984375 0 L 5.25 0 L 5.25 -39.9375 L 11.984375 -39.9375 L 11.984375 -22.59375 L 33.140625 -22.59375 L 33.140625 -39.9375 L 39.875 -39.9375 Z M 39.875 0 "/></g></g></g><g fill="#ffffff" fill-opacity="1"><g transform="translate(228.751849, 252.164146)"><g><path d="M 17.859375 -30.578125 C 22.535156 -30.578125 26.335938 -29.160156 29.265625 -26.328125 C 32.191406 -23.492188 33.65625 -19.773438 33.65625 -15.171875 C 33.65625 -10.609375 32.191406 -6.898438 29.265625 -4.046875 C 26.335938 -1.191406 22.535156 0.234375 17.859375 0.234375 C 13.140625 0.234375 9.316406 -1.191406 6.390625 -4.046875 C 3.460938 -6.898438 2 -10.609375 2 -15.171875 C 2 -19.773438 3.460938 -23.492188 6.390625 -26.328125 C 9.316406 -29.160156 13.140625 -30.578125 17.859375 -30.578125 Z M 17.859375 -24.921875 C 15.117188 -24.921875 12.882812 -24.007812 11.15625 -22.1875 C 9.425781 -20.363281 8.5625 -18.007812 8.5625 -15.125 C 8.5625 -12.1875 9.425781 -9.804688 11.15625 -7.984375 C 12.882812 -6.160156 15.117188 -5.25 17.859375 -5.25 C 20.597656 -5.25 22.820312 -6.160156 24.53125 -7.984375 C 26.238281 -9.804688 27.09375 -12.1875 27.09375 -15.125 C 27.09375 -18.007812 26.226562 -20.363281 24.5 -22.1875 C 22.769531 -24.007812 20.554688 -24.921875 17.859375 -24.921875 Z M 17.859375 -24.921875 "/></g></g></g><g fill="#ffffff" fill-opacity="1"><g transform="translate(264.396751, 252.164146)"><g><path d="M 32.40625 -30.34375 L 32.40625 0 L 25.84375 0 L 25.84375 -5.9375 C 23.863281 -1.90625 20.25 0.148438 15 0.234375 C 11.539062 0.234375 8.820312 -0.8125 6.84375 -2.90625 C 4.863281 -5 3.875 -7.851562 3.875 -11.46875 L 3.875 -30.34375 L 10.4375 -30.34375 L 10.4375 -13.296875 C 10.4375 -11.015625 11.0625 -9.21875 12.3125 -7.90625 C 13.570312 -6.59375 15.304688 -5.9375 17.515625 -5.9375 C 20.054688 -5.96875 22.078125 -6.867188 23.578125 -8.640625 C 25.085938 -10.410156 25.84375 -12.664062 25.84375 -15.40625 L 25.84375 -30.34375 Z M 32.40625 -30.34375 "/></g></g></g><g fill="#ffffff" fill-opacity="1"><g transform="translate(301.638554, 252.164146)"><g><path d="M 13.921875 -30.640625 C 18.097656 -30.640625 21.632812 -29.609375 24.53125 -27.546875 L 22.140625 -22.703125 C 19.242188 -24.492188 16.332031 -25.390625 13.40625 -25.390625 C 10.4375 -25.390625 8.953125 -24.378906 8.953125 -22.359375 C 8.953125 -21.367188 9.503906 -20.550781 10.609375 -19.90625 C 11.710938 -19.257812 13.050781 -18.71875 14.625 -18.28125 C 16.207031 -17.84375 17.785156 -17.328125 19.359375 -16.734375 C 20.941406 -16.148438 22.285156 -15.191406 23.390625 -13.859375 C 24.492188 -12.523438 25.046875 -10.832031 25.046875 -8.78125 C 25.046875 -5.851562 23.929688 -3.617188 21.703125 -2.078125 C 19.484375 -0.535156 16.71875 0.234375 13.40625 0.234375 C 11.125 0.234375 8.890625 -0.132812 6.703125 -0.875 C 4.515625 -1.625 2.679688 -2.664062 1.203125 -4 L 3.53125 -8.671875 C 4.820312 -7.523438 6.410156 -6.609375 8.296875 -5.921875 C 10.179688 -5.242188 11.976562 -4.90625 13.6875 -4.90625 C 15.175781 -4.90625 16.375 -5.171875 17.28125 -5.703125 C 18.195312 -6.234375 18.65625 -7.050781 18.65625 -8.15625 C 18.65625 -9.300781 18.101562 -10.210938 17 -10.890625 C 15.894531 -11.578125 14.5625 -12.128906 13 -12.546875 C 11.445312 -12.960938 9.890625 -13.457031 8.328125 -14.03125 C 6.765625 -14.601562 5.441406 -15.546875 4.359375 -16.859375 C 3.273438 -18.171875 2.734375 -19.832031 2.734375 -21.84375 C 2.734375 -24.738281 3.804688 -26.925781 5.953125 -28.40625 C 8.109375 -29.894531 10.765625 -30.640625 13.921875 -30.640625 Z M 13.921875 -30.640625 "/></g></g></g><g fill="#ffffff" fill-opacity="1"><g transform="translate(328.443525, 252.164146)"><g><path d="M 30.578125 -30.34375 L 16.765625 4.171875 C 14.898438 8.960938 11.613281 11.359375 6.90625 11.359375 C 4.28125 11.359375 1.941406 10.5 -0.109375 8.78125 L 2.6875 3.703125 C 4.050781 4.691406 5.363281 5.1875 6.625 5.1875 C 8.675781 5.1875 10.210938 4.066406 11.234375 1.828125 L 12.265625 -0.453125 L -0.28125 -30.34375 L 6.5 -30.34375 L 15.578125 -7.359375 L 24.015625 -30.34375 Z M 30.578125 -30.34375 "/></g></g></g></svg>